<svg width="16" height="16" viewBox="0 0 16 16" fill="none" xmlns="http://www.w3.org/2000/svg">
<g clip-path="url(#clip0_1_1695)">
<path fill-rule="evenodd" clip-rule="evenodd" d="M7.96167 0.833496L8.99992 0.833496C9.27606 0.833496 9.49992 1.05735 9.49992 1.3335C9.49992 1.60964 9.27606 1.8335 8.99992 1.8335H7.99992C6.41443 1.8335 5.27562 1.83456 4.40897 1.95108C3.5567 2.06566 3.04289 2.28359 2.66312 2.66336C2.28335 3.04313 2.06542 3.55694 1.95083 4.40921C1.83431 5.27587 1.83325 6.41468 1.83325 8.00016C1.83325 9.58564 1.83431 10.7245 1.95083 11.5911C2.06542 12.4434 2.28335 12.9572 2.66312 13.337C3.04289 13.7167 3.5567 13.9347 4.40897 14.0492C5.27562 14.1658 6.41443 14.1668 7.99992 14.1668C9.5854 14.1668 10.7242 14.1658 11.5909 14.0492C12.4431 13.9347 12.9569 13.7167 13.3367 13.337C13.7165 12.9572 13.9344 12.4434 14.049 11.5911C14.1655 10.7245 14.1666 9.58564 14.1666 8.00016V7.00016C14.1666 6.72402 14.3904 6.50016 14.6666 6.50016C14.9427 6.50016 15.1666 6.72402 15.1666 7.00016V8.03841C15.1666 9.57734 15.1666 10.7834 15.0401 11.7244C14.9106 12.6875 14.6404 13.4475 14.0438 14.0441C13.4473 14.6406 12.6873 14.9108 11.7241 15.0403C10.7831 15.1668 9.5771 15.1668 8.03817 15.1668H7.96167C6.42274 15.1668 5.21671 15.1668 4.27572 15.0403C3.31256 14.9108 2.55255 14.6406 1.95601 14.0441C1.35947 13.4475 1.08924 12.6875 0.95975 11.7244C0.833237 10.7834 0.833244 9.57734 0.833252 8.03841V7.96191C0.833244 6.42298 0.833237 5.21696 0.95975 4.27597C1.08924 3.31281 1.35947 2.55279 1.95601 1.95625C2.55255 1.35971 3.31256 1.08949 4.27572 0.959994C5.21671 0.833481 6.42274 0.833488 7.96167 0.833496ZM11.1803 1.51744C12.0922 0.605515 13.5707 0.605515 14.4826 1.51744C15.3946 2.42936 15.3946 3.90788 14.4826 4.81981L10.0506 9.25188C9.80305 9.49943 9.648 9.6545 9.47497 9.78946C9.27117 9.94842 9.05067 10.0847 8.81735 10.1959C8.61926 10.2903 8.41122 10.3596 8.07911 10.4703L6.14276 11.1158C5.78526 11.2349 5.39112 11.1419 5.12466 10.8754C4.8582 10.609 4.76515 10.2148 4.88432 9.85732L5.52976 7.92098C5.64044 7.58887 5.70977 7.38082 5.80418 7.18273C5.91538 6.94941 6.05166 6.7289 6.21062 6.52511C6.34558 6.35207 6.50065 6.19702 6.74822 5.94949L11.1803 1.51744ZM13.7755 2.22455C13.2541 1.70315 12.4088 1.70315 11.8874 2.22455L11.6363 2.47563C11.6514 2.53953 11.6726 2.61568 11.7021 2.70061C11.7976 2.97598 11.9784 3.33864 12.3199 3.68016C12.6614 4.02168 13.0241 4.20247 13.2995 4.29801C13.3844 4.32747 13.4605 4.34865 13.5245 4.36378L13.7755 4.1127C14.2969 3.5913 14.2969 2.74595 13.7755 2.22455ZM12.7367 5.15155C12.3927 5.00362 11.992 4.76647 11.6128 4.38726C11.2336 4.00806 10.9965 3.60738 10.8485 3.2634L7.47826 6.63367C7.20058 6.91134 7.09168 7.02146 6.99913 7.14013C6.88484 7.28666 6.78685 7.4452 6.70691 7.61295C6.64216 7.7488 6.59237 7.89545 6.46819 8.26799L6.18026 9.13178L6.8683 9.81982L7.73209 9.53189C8.10463 9.40771 8.25128 9.35792 8.38713 9.29317C8.55488 9.21323 8.71342 9.11524 8.85995 9.00095C8.97861 8.9084 9.08873 8.7995 9.36641 8.52182L12.7367 5.15155Z" fill="#FFB620"/>
</g>
<defs>
<clipPath id="clip0_1_1695">
<rect width="16" height="16" fill="white"/>
</clipPath>
</defs>
</svg>
